HIERARCHY
ROOT Hips
{
	OFFSET	0.00	0.00	0.00
	CHANNELS 6 Xposition Yposition Zposition Zrotation Xrotation Yrotation
	JOINT LeftUpLeg
	{
		OFFSET	 0.126116	-0.014019	-0.065224
		CHANNELS 3 Zrotation Xrotation Yrotation
		JOINT LeftLeg
		{
			OFFSET	 0.000000	 0.000000	 0.569914
			CHANNELS 3 Zrotation Xrotation Yrotation
			JOINT LeftFoot
			{
				OFFSET	 0.000000	 0.000000	 0.544423
				CHANNELS 3 Zrotation Xrotation Yrotation
				JOINT LeftToeBase
				{
					OFFSET	 0.000000	 0.000000	 0.207117
					CHANNELS 3 Zrotation Xrotation Yrotation
					End Site
					{
						OFFSET	 0.000000	 0.000000	 0.207117
					}
				}
			}
		}
	}
	JOINT RightUpLeg
	{
		OFFSET	-0.124023	-0.008373	-0.065224
		CHANNELS 3 Zrotation Xrotation Yrotation
		JOINT RightLeg
		{
			OFFSET	 0.000000	 0.000000	 0.570047
			CHANNELS 3 Zrotation Xrotation Yrotation
			JOINT RightFoot
			{
				OFFSET	 0.000000	 0.000000	 0.544354
				CHANNELS 3 Zrotation Xrotation Yrotation
				JOINT RightToeBase
				{
					OFFSET	 0.000000	 0.000000	 0.207540
					CHANNELS 3 Zrotation Xrotation Yrotation
					End Site
					{
						OFFSET	 0.000000	 0.000000	 0.207540
					}
				}
			}
		}
	}
	JOINT Spine
	{
		OFFSET	 0.000184	-0.007763	 0.117403
		CHANNELS 3 Zrotation Xrotation Yrotation
		JOINT Spine1
		{
			OFFSET	 0.000000	 0.000000	 0.137269
			CHANNELS 3 Zrotation Xrotation Yrotation
			JOINT Spine2
			{
				OFFSET	 0.000000	 0.000000	 0.156879
				CHANNELS 3 Zrotation Xrotation Yrotation
				JOINT LeftShoulder
				{
					OFFSET	 0.080501	-0.002496	 0.160144
					CHANNELS 3 Zrotation Xrotation Yrotation
					JOINT LeftArm
					{
						OFFSET	 0.000000	 0.000000	 0.164363
						CHANNELS 3 Zrotation Xrotation Yrotation
						JOINT LeftForeArm
						{
							OFFSET	 0.000000	 0.000000	 0.364576
							CHANNELS 3 Zrotation Xrotation Yrotation
							JOINT LeftHand
							{
								OFFSET	 0.000000	 0.000000	 0.360812
								CHANNELS 3 Zrotation Xrotation Yrotation
								JOINT LeftHandIndex1
								{
									OFFSET	 0.000000	 0.000000	 0.086006
									CHANNELS 3 Zrotation Xrotation Yrotation
									JOINT LeftHandIndex2
									{
										OFFSET	 0.000000	 0.000000	 0.047236
										CHANNELS 3 Zrotation Xrotation Yrotation
										JOINT LeftHandIndex3
										{
											OFFSET	-0.004284	-0.000551	 0.038166
											CHANNELS 3 Zrotation Xrotation Yrotation
											End Site
											{
												OFFSET	-0.004284	-0.000551	 0.038166
											}
										}
									}
								}
							}
						}
					}
				}
				JOINT Neck
				{
					OFFSET	 0.000000	 0.000000	 0.176489
					CHANNELS 3 Zrotation Xrotation Yrotation
					JOINT Head
					{
						OFFSET	 0.000000	-0.001747	 0.077940
						CHANNELS 3 Zrotation Xrotation Yrotation
						End Site
						{
							OFFSET	 0.000000	-0.001747	 0.077940
						}
					}
				}
				JOINT RightShoulder
				{
					OFFSET	-0.080363	 0.000306	 0.159706
					CHANNELS 3 Zrotation Xrotation Yrotation
					JOINT RightArm
					{
						OFFSET	 0.000000	 0.000000	 0.164196
						CHANNELS 3 Zrotation Xrotation Yrotation
						JOINT RightForeArm
						{
							OFFSET	 0.000000	 0.000000	 0.365611
							CHANNELS 3 Zrotation Xrotation Yrotation
							JOINT RightHand
							{
								OFFSET	 0.000000	 0.000000	 0.360648
								CHANNELS 3 Zrotation Xrotation Yrotation
								JOINT RightHandIndex1
								{
									OFFSET	 0.000000	 0.000000	 0.069977
									CHANNELS 3 Zrotation Xrotation Yrotation
									JOINT RightHandIndex2
									{
										OFFSET	 0.000000	 0.000000	 0.052305
										CHANNELS 3 Zrotation Xrotation Yrotation
										JOINT RightHandIndex3
										{
											OFFSET	 0.009002	-0.000782	 0.042196
											CHANNELS 3 Zrotation Xrotation Yrotation
											End Site
											{
												OFFSET	 0.009002	-0.000782	 0.042196
											}
										}
									}
								}
							}
						}
					}
				}
			}
		}
	}
}
MOTION
Frames:    11
Frame Time: 0.03333334
-10.306580	-33.228560	 0.877606	-36.570590	 9.456325	 3.105400	 5.612402	-20.646000	 175.439600	-4.265433	-36.315390	-1.003729	-1.174021	 83.510600	-0.503413	-2.333230	 36.511540	-0.185776	-1.992472	-22.634480	-178.948300	-2.014537	-40.412600	-0.968526	-1.516963	 86.992350	 0.728138	 2.392662	 26.364650	-0.043221	 6.645554	 4.651712	-1.625402	 11.162340	 3.214951	-1.994606	 13.014260	 1.354676	 0.710305	-101.542600	 88.592640	-167.531000	 54.655650	 68.106860	-64.584190	-4.890080	-4.317382	-17.816110	 7.860320	-2.262309	-5.308193	-2.036351	-11.162250	 7.085584	-5.213516	-0.193813	 3.566525	-1.378229	 35.397820	-2.634230	 0.709580	 1.299614	 0.642312	 3.591706	 2.496105	 0.012808	 96.588970	 87.893180	 170.257400	-50.731570	 75.764660	 64.128930	-2.070864	-12.769400	 23.259590	-25.922280	-3.197756	 9.565182	-7.427997	-4.198664	-37.117420	 5.070815	-0.697434	-9.399699	-2.350882	 35.473990	 5.254307
-10.311160	-33.231140	 0.879612	-36.370900	 9.052388	 2.954129	 5.432257	-20.168710	 175.380100	-4.302193	-36.500760	-1.143003	-1.299610	 83.712260	-0.562440	-2.328118	 37.076220	-0.199854	-1.728076	-21.386340	-178.992000	-1.817171	-39.041440	-0.703249	-1.422274	 86.425220	 0.924748	 2.395225	 25.595420	-0.059360	 6.496413	 4.579687	-1.585065	 11.088410	 3.398873	-2.013668	 13.102840	 1.481032	 0.700708	-100.988800	 88.612810	-168.277500	 53.468690	 68.457740	-63.104890	-4.731355	-4.255502	-16.776140	 8.287512	-2.290677	-5.294648	-3.260355	-11.728540	 4.207994	-5.213516	-0.193813	 3.566525	-1.378229	 35.397820	-2.634230	 0.768769	 1.538223	 0.740225	 3.757677	 2.896938	 0.072687	 96.839420	 87.950240	 169.999200	-52.089340	 75.645520	 65.196950	-2.487370	-12.689680	 23.045490	-25.975460	-3.198811	 9.562873	-7.328093	-4.241980	-36.828510	 5.070815	-0.697434	-9.399699	-2.350882	 35.473990	 5.254307
-10.317280	-33.233720	 0.879317	-35.848220	 8.882785	 2.761347	 5.201195	-19.750810	 175.340200	-4.121643	-36.393970	-1.162524	-1.384816	 83.799420	-0.517439	-2.323967	 37.517690	-0.210983	-1.882372	-19.616280	-179.045600	-1.198046	-36.752220	-0.443437	-1.400926	 86.516700	 1.279763	 2.390720	 26.901130	-0.031872	 6.239879	 4.206269	-1.548013	 10.895440	 3.549286	-1.996423	 13.098480	 1.669859	 0.678848	-100.027400	 88.592350	-169.460200	 52.784870	 68.922940	-62.279900	-4.699218	-4.216862	-15.911370	 8.734304	-2.312926	-5.282772	-3.335471	-11.930680	 4.030005	-5.213516	-0.193813	 3.566525	-1.378229	 35.397820	-2.634230	 0.728034	 1.771650	 0.915087	 3.885536	 3.484819	-0.146839	 97.362140	 88.061650	 169.465500	-52.784300	 75.733720	 65.325620	-2.749412	-12.621570	 22.893500	-25.997200	-3.199095	 9.562206	-7.199939	-4.140501	-36.575770	 5.070815	-0.697434	-9.399699	-2.350882	 35.473990	 5.254307
-10.323240	-33.234750	 0.879582	-35.736710	 8.850185	 3.104333	 4.941501	-19.335970	 174.802200	-4.073648	-35.997520	-1.290415	-1.472387	 83.536650	-0.635175	-2.322311	 37.689800	-0.215354	-2.288441	-18.627700	-179.672200	-1.199868	-35.099770	-0.729533	-1.759145	 86.321290	 1.256049	 2.395725	 25.436930	-0.062668	 6.169327	 3.840273	-2.101151	 10.895160	 3.598489	-2.080048	 13.083340	 1.813399	 0.661632	-98.792540	 88.412800	-170.747600	 52.401010	 69.724230	-62.253630	-5.100451	-4.269882	-15.417550	 9.290126	-2.328000	-5.271364	-3.281381	-12.046570	 4.152667	-5.213516	-0.193813	 3.566525	-1.378229	 35.397820	-2.634230	 0.817495	 2.037251	 1.117641	 3.901256	 3.855253	-0.085007	 98.368500	 88.283880	 168.518500	-53.274150	 75.841840	 65.295090	-2.922066	-12.536010	 22.752290	-25.980410	-3.199145	 9.561845	-7.078408	-3.926696	-36.423200	 5.070815	-0.697434	-9.399699	-2.350882	 35.473990	 5.254307
-10.327520	-33.235350	 0.880125	-36.581020	 8.904219	 3.187532	 4.948544	-18.886430	 174.842000	-4.441182	-35.343730	-1.464472	-1.531036	 83.156300	-0.882329	-2.323478	 37.568790	-0.212279	-2.463327	-18.443020	-179.736500	-1.791164	-34.500600	-1.167622	-2.413716	 86.055080	 1.264264	 2.397657	 24.783480	-0.076249	 6.413973	 3.421901	-2.074175	 11.097350	 3.455743	-2.017292	 13.058890	 1.701885	 0.673120	-98.956630	 88.386870	-170.488100	 52.360690	 70.392890	-62.116250	-6.141727	-4.249734	-15.937930	 8.866506	-2.311338	-5.281821	-3.840237	-12.831510	 2.864040	-5.213516	-0.193813	 3.566525	-1.378229	 35.397820	-2.634230	 1.030032	 2.265352	 1.086399	 3.834811	 3.898897	-0.236249	 97.962890	 88.310670	 169.109900	-53.147970	 75.834120	 64.965280	-3.145478	-12.494030	 22.584750	-26.087700	-3.200128	 9.558850	-6.994157	-3.715034	-36.364620	 5.070815	-0.697434	-9.399699	-2.350882	 35.473990	 5.254307
-10.330660	-33.235130	 0.881073	-37.206130	 8.880432	 2.631475	 5.108705	-18.148520	 175.324200	-4.744541	-34.486880	-1.475707	-1.617760	 82.888530	-0.904557	-2.325808	 37.323360	-0.206078	-2.465623	-18.620130	-179.335800	-1.914219	-34.510740	-1.211589	-2.646100	 86.052010	 1.436822	 2.396712	 25.112200	-0.069436	 6.460102	 3.459457	-1.424356	 11.031200	 3.283590	-1.727351	 12.939780	 1.471615	 0.692980	-99.454150	 88.445050	-169.934400	 54.249420	 69.743230	-63.642090	-6.443841	-4.111506	-17.166300	 7.645667	-2.280996	-5.304112	-3.760048	-12.858080	 3.046624	-5.213516	-0.193813	 3.566525	-1.378229	 35.397820	-2.634230	 1.110067	 2.189341	 0.950298	 3.825197	 4.071489	-0.496830	 97.555690	 88.236200	 169.517200	-52.694990	 75.703260	 64.636310	-3.418364	-12.471190	 22.368190	-26.294700	-3.200685	 9.555767	-6.967924	-3.625703	-36.364070	 5.070815	-0.697434	-9.399699	-2.350882	 35.473990	 5.254307
-10.332930	-33.234970	 0.882127	-37.217140	 8.902994	 2.420634	 5.130713	-17.823750	 175.437700	-4.734337	-33.914070	-1.415532	-1.704152	 82.808490	-0.794037	-2.326969	 37.199770	-0.202959	-2.505670	-18.545170	-179.298600	-1.790869	-34.727040	-1.158914	-2.729460	 86.057020	 1.604267	 2.395784	 25.417210	-0.063081	 6.203979	 3.483363	-1.397794	 10.760230	 3.209250	-1.581587	 12.769410	 1.348515	 0.697517	-98.680920	 88.345190	-170.785300	 56.513010	 68.533460	-66.013310	-5.162865	-4.216452	-17.744620	 7.680868	-2.269381	-5.307275	-3.498058	-11.934970	 3.654091	-5.213516	-0.193813	 3.566525	-1.378229	 35.397820	-2.634230	 1.097445	 2.208540	 1.001893	 3.845225	 4.114127	-0.376932	 98.353460	 88.325790	 168.620500	-51.739520	 75.557570	 63.857430	-3.602202	-12.447320	 22.199650	-26.458570	-3.200492	 9.554242	-7.011618	-3.702830	-36.419250	 5.070815	-0.697434	-9.399699	-2.350882	 35.473990	 5.254307
-10.334820	-33.235230	 0.882993	-36.970490	 8.939523	 2.305728	 5.102705	-17.680320	 175.458500	-4.603797	-33.605370	-1.336312	-1.765542	 82.763640	-0.644769	-2.327807	 37.109230	-0.200686	-2.536548	-18.440440	-179.298600	-1.587882	-34.789830	-1.058740	-2.759723	 86.052010	 1.783659	 2.394765	 25.739940	-0.056337	 5.829257	 3.285275	-1.470924	 10.381650	 3.159045	-1.528776	 12.528540	 1.263283	 0.693583	-97.928800	 88.273880	-171.682800	 57.919110	 67.731620	-67.885710	-4.207862	-4.379712	-18.096440	 8.027303	-2.263042	-5.306963	-3.235807	-11.125460	 4.278668	-5.213516	-0.193813	 3.566525	-1.378229	 35.397820	-2.634230	 1.026193	 2.293465	 1.033297	 3.843257	 4.152421	-0.183134	 99.613010	 88.473120	 167.278000	-50.113830	 75.442960	 62.335620	-3.598259	-12.426890	 22.169010	-26.495780	-3.199893	 9.553377	-7.052595	-3.711997	-36.518750	 5.070815	-0.697434	-9.399699	-2.350882	 35.473990	 5.254307
-10.336280	-33.235330	 0.883768	-36.544310	 8.920441	 2.148050	 5.105590	-17.580800	 175.467200	-4.311886	-33.438070	-1.162950	-1.719236	 82.751640	-0.440759	-2.328444	 37.039820	-0.198950	-2.647772	-18.298150	-179.255100	-1.370255	-34.740690	-0.989601	-2.828995	 86.031880	 1.955332	 2.394721	 25.754100	-0.056048	 5.374754	 3.161668	-1.414779	 9.875840	 3.043057	-1.545402	 12.166120	 1.111918	 0.689451	-97.654640	 88.300380	-172.089900	 58.715790	 67.255070	-69.185330	-4.309847	-4.351427	-18.650470	 7.674771	-2.247899	-5.314591	-3.380479	-10.953800	 3.942600	-5.213516	-0.193813	 3.566525	-1.378229	 35.397820	-2.634230	 0.859169	 2.251699	 1.030796	 3.815243	 4.303631	-0.274903	 99.897200	 88.464430	 166.892700	-48.174530	 75.304900	 60.564010	-3.453480	-12.430550	 22.272830	-26.455030	-3.198638	 9.552666	-7.092343	-3.648904	-36.670060	 5.070815	-0.697434	-9.399699	-2.350882	 35.473990	 5.254307
-10.337390	-33.235520	 0.884289	-36.159660	 8.907281	 2.056612	 5.050565	-17.400420	 175.483100	-4.084346	-33.287580	-1.057292	-1.774572	 82.772270	-0.234792	-2.329431	 36.933340	-0.196280	-2.774541	-18.110840	-179.306800	-1.143139	-34.675930	-0.930052	-2.908129	 86.022320	 2.123780	 2.394732	 25.750130	-0.056126	 4.986661	 3.062620	-1.330969	 9.389463	 2.861337	-1.616986	 11.732880	 0.898862	 0.686544	-97.930920	 88.409100	-171.876500	 59.072140	 66.584300	-69.865730	-4.246366	-4.381204	-19.702990	 7.269729	-2.220743	-5.326232	-3.318297	-10.678050	 4.094265	-5.213516	-0.193813	 3.566525	-1.378229	 35.397820	-2.634230	 0.682088	 2.117838	 1.089543	 3.733485	 4.449396	-0.602510	 99.434850	 88.367330	 167.280300	-46.194270	 75.158000	 58.783360	-3.112096	-12.428660	 22.523280	-26.259970	-3.196370	 9.554757	-7.136529	-3.556807	-36.855500	 5.070815	-0.697434	-9.399699	-2.350882	 35.473990	 5.254307
-10.338070	-33.235650	 0.884622	-35.819580	 8.958074	 2.056546	 5.022872	-17.327010	 175.449200	-3.886828	-33.094840	-0.954624	-1.849497	 82.837440	-0.018873	-2.330523	 36.813720	-0.193290	-2.813088	-17.992800	-179.283800	-0.935381	-34.594840	-0.831151	-2.987295	 86.023050	 2.351742	 2.394558	 25.804210	-0.054994	 4.606278	 2.879385	-1.283472	 8.860222	 2.622833	-1.694791	 11.154950	 0.631437	 0.678533	-98.441510	 88.523030	-171.378500	 58.837090	 65.706770	-70.230030	-4.080896	-4.579440	-21.636260	 6.995675	-2.178337	-5.341120	-3.488647	-10.748760	 3.691073	-5.213516	-0.193813	 3.566525	-1.378229	 35.397820	-2.634230	 0.533648	 2.126137	 0.932266	 3.537773	 4.402496	-0.637061	 98.763150	 88.251460	 167.925400	-44.143730	 74.944590	 57.109050	-2.367332	-12.380800	 23.046990	-25.727140	-3.191610	 9.561021	-7.182363	-3.492193	-37.024590	 5.070815	-0.697434	-9.399699	-2.350882	 35.473990	 5.254307
